<svg width="19" height="19" viewBox="0 0 19 19" fill="none" xmlns="http://www.w3.org/2000/svg">
<path d="M15.1935 0.328204C14.53 0.0025322 11.1667 0.374517 8.74066 2.70083C4.91988 6.51686 5.01162 11.5424 5.01162 11.5424C5.01162 11.5424 4.88574 12.0598 4.34721 11.3096C3.16921 9.80891 3.78641 6.35506 3.85529 5.87353C3.95266 5.19636 3.52071 5.17558 3.34051 5.40002C-0.915194 11.3093 2.92845 16.1487 5.44565 17.6847C8.39184 19.4823 14.2049 19.4817 16.5209 14.3811C19.4038 8.02885 16.0245 0.735813 15.1935 0.328204Z" fill="#79AC6A"/>
<path d="M15.1275 5.9333C15.4229 3.95226 15.4247 2.04394 15.1819 0.324443C14.4961 0.00738098 11.1547 0.386193 8.74085 2.70122C4.92007 6.51726 5.01181 11.5428 5.01181 11.5428C5.01181 11.5428 4.88593 12.0602 4.3474 11.31C3.1694 9.8093 3.78661 6.35546 3.85548 5.87393C3.95286 5.19676 3.5209 5.17597 3.3407 5.40041C0.768575 8.97182 1.15659 12.1508 2.42039 14.4477C3.68537 15.8059 5.12492 16.6986 6.45818 16.8975C10.2582 17.4645 14.1389 12.5557 15.1275 5.9333Z" fill="#CAE5C2"/>
<path d="M15.1274 5.93281C15.4228 3.95176 15.4245 2.04345 15.1817 0.32395C14.4959 0.00688735 11.8344 1.10829 9.42024 3.42392C5.59946 7.23965 5.01165 11.5423 5.01165 11.5423C5.01165 11.5423 4.88577 12.0597 4.34724 11.3095C3.16924 9.80881 3.57418 7.2162 3.64335 6.73497C3.74102 6.0575 3.30877 6.03701 3.12857 6.26145C0.55674 9.83286 1.15672 12.1506 2.42082 14.4472C3.6858 15.8054 5.12535 16.6981 6.45861 16.897C10.258 17.464 14.1388 12.5552 15.1274 5.93281Z" fill="#99C08E"/>
</svg>
