<svg width="878" height="290" viewBox="0 0 878 290" fill="none" xmlns="http://www.w3.org/2000/svg">
<path d="M844.268 132.403C848.954 123.633 851.622 113.611 851.622 102.962C851.622 68.2777 823.504 40.1593 788.82 40.1593C782.927 40.1593 777.243 40.9713 771.837 42.5025C760.469 23.9657 739.984 11.6001 716.621 11.6001C680.824 11.6001 651.824 40.6465 651.824 76.4441C651.824 84.6105 653.332 92.4289 656.116 99.6209C628.229 105.63 607.326 130.477 607.326 160.196C607.326 179.151 615.841 196.156 629.273 207.501C628.67 210.865 628.345 214.345 628.345 217.895C628.345 251.024 655.211 277.867 688.317 277.867C697.76 277.867 706.669 275.686 714.603 271.811C723.489 282.901 737.177 290 752.489 290C771.42 290 787.845 279.189 795.873 263.343C799.283 263.877 802.809 264.132 806.405 264.132C845.799 264.132 877.745 232.209 877.745 192.792C877.745 167.319 864.382 144.931 844.245 132.356L844.268 132.403Z" fill="#578246"/>
<path d="M844.268 120.802C848.954 112.033 851.622 102.01 851.622 91.3616C851.622 56.6776 823.504 28.5592 788.82 28.5592C782.927 28.5592 777.243 29.3712 771.837 30.9024C760.469 12.3656 739.984 0 716.621 0C680.824 0 651.824 29.0464 651.824 64.844C651.824 73.0104 653.332 80.8288 656.116 88.0208C628.229 94.0296 607.326 118.877 607.326 148.596C607.326 167.55 615.841 184.556 629.273 195.901C628.67 199.265 628.345 202.745 628.345 206.294C628.345 239.424 655.211 266.266 688.317 266.266C697.76 266.266 706.669 264.086 714.603 260.211C723.489 271.301 737.177 278.4 752.489 278.4C771.42 278.4 787.845 267.589 795.873 251.743C799.283 252.277 802.809 252.532 806.405 252.532C845.799 252.532 877.745 220.609 877.745 181.192C877.745 155.718 864.382 133.33 844.245 120.756L844.268 120.802Z" fill="#99C08E"/>
<path d="M703.49 177.921C702.818 177.921 701.866 177.967 700.66 178.083C699.43 178.199 698.549 178.246 697.992 178.246C695.881 178.246 694.35 177.689 693.398 176.575C692.447 175.462 691.983 173.675 691.983 171.239C691.983 170.567 692.377 167.063 693.143 160.707C700.938 158.155 708.571 156.855 716.018 156.855C716.575 156.855 717.41 156.879 718.524 156.948C719.637 156.995 720.519 157.041 721.192 157.041L732.885 156.368C732.444 155.371 732.189 154.002 732.142 152.285C732.096 150.568 731.887 149.223 731.562 148.271C731.237 147.32 730.495 146.787 729.382 146.694C727.711 146.369 720.867 146.044 708.826 145.766C696.809 145.487 689.779 145.464 687.784 145.673C685.232 146.114 683.028 146.253 681.195 146.09C679.362 145.928 677.993 144.722 677.112 142.495C675.441 138.829 674.931 134.699 675.604 130.129C675.836 129.015 676.764 127.902 678.434 126.788C680.105 125.674 684.002 124.793 690.127 124.12C696.252 123.447 700.59 123.331 703.165 123.795H724.138C728.082 123.795 730.843 123.749 732.397 123.633C752.883 123.401 764.692 123.308 767.801 123.308C770.91 123.308 777.707 123.587 788.17 124.143C798.634 124.7 804.155 124.979 804.712 124.979C805.269 124.979 806.266 125.141 807.728 125.489C810.071 126.046 811.649 126.858 812.484 127.902C813.319 128.969 813.574 130.663 813.226 133.006C813.11 133.887 812.994 134.676 812.902 135.349C812.786 136.022 812.669 136.625 812.577 137.182C812.461 137.739 812.252 138.203 811.904 138.597C811.579 138.991 811.347 139.339 811.231 139.687C811.115 140.035 810.79 140.337 810.233 140.615C809.677 140.894 809.259 141.126 808.981 141.288C808.702 141.451 808.146 141.659 807.31 141.868C806.475 142.1 805.872 142.263 805.477 142.379C805.083 142.495 804.271 142.703 803.065 143.051C801.835 143.376 800.884 143.608 800.234 143.724C799.005 144.049 791.882 144.42 778.844 144.815C765.805 145.209 758.637 145.627 757.291 146.067C756.85 146.183 756.595 146.671 756.549 147.575C756.502 148.457 756.502 149.408 756.549 150.406C756.595 151.403 756.572 152.471 756.456 153.584C756.456 153.909 756.502 154.419 756.618 155.092C756.734 155.765 756.781 156.206 756.781 156.438C768.149 156.67 777.893 156.879 786.013 157.111C788.124 157.227 790.073 157.667 791.859 158.456C792.532 158.688 793.112 159.129 793.622 159.802C794.133 160.475 794.365 161.078 794.365 161.635V163.978C794.365 167.202 793.878 169.824 792.95 171.819C791.998 173.815 790.026 175.323 787.01 176.32C786.454 176.552 784.69 176.691 781.744 176.738C778.797 176.784 776.083 176.923 773.647 177.155C771.188 177.387 769.982 177.828 769.982 178.501C769.866 179.058 769.912 179.939 770.144 181.169C770.376 182.399 770.469 183.28 770.469 183.837C770.469 183.953 770.515 184.904 770.631 186.667C770.747 188.454 770.793 189.614 770.793 190.171L791.673 191.516C791.557 192.955 791.488 195.878 791.418 200.286C791.349 204.694 791.001 208.104 790.328 210.563C790.212 211.004 789.817 211.514 789.168 212.071C788.495 212.628 787.938 212.907 787.497 212.907C785.943 213.023 779.47 213.069 768.125 213.069C765.55 213.069 761.838 213.023 756.943 212.907C752.048 212.79 748.313 212.744 745.761 212.744C741.631 212.744 735.437 212.767 727.131 212.837C718.826 212.883 712.631 212.93 708.502 212.93H694.976C693.421 212.93 692.215 212.489 691.38 211.584C690.545 210.703 690.127 209.519 690.127 208.081C690.127 207.64 690.174 207.13 690.29 206.573C690.29 206.248 690.382 205.088 690.545 203.139C690.707 201.191 690.962 199.775 691.287 198.871C692.169 196.875 693.723 195.53 695.973 194.857C697.969 194.184 700.846 193.465 704.581 192.676C708.316 191.887 710.52 191.447 711.17 191.331C712.724 191.006 713.861 190.658 714.603 190.333C715.322 190.008 716.088 189.382 716.853 188.5C717.619 187.618 718.013 186.435 718.013 184.997C718.013 184.208 718.13 183.373 718.338 182.491C718.57 181.61 718.872 180.566 719.266 179.406C719.661 178.246 719.916 177.434 720.009 176.993C717.898 177.55 716.784 177.828 716.668 177.828C713.327 177.944 710.218 177.991 707.318 177.991H703.467L703.49 177.921ZM727.038 59.9953C739.288 59.1137 746.178 58.6033 747.756 58.4873C750.308 58.4873 753.162 59.3689 756.27 61.1553C756.943 61.4801 757.546 62.1761 758.103 63.2433C758.66 64.3105 758.938 65.2849 758.938 66.1665C758.822 73.0801 759.657 79.2513 761.444 84.7033C761.769 85.8169 764.483 87.5801 769.541 89.9697C774.598 92.3593 778.194 93.8441 780.305 94.4009C787.312 96.3033 796.174 98.9713 806.87 102.428C808.656 102.985 809.909 103.704 810.628 104.609C811.347 105.491 811.324 106.836 810.535 108.623C810.21 109.504 809.885 110.177 809.607 110.618C809.329 111.059 809.097 111.476 808.934 111.871C808.772 112.265 808.517 112.961 808.192 113.959C807.96 115.072 807.728 116.279 807.45 117.555C807.171 118.831 807.032 119.619 807.032 119.898C807.032 120.176 806.753 120.547 806.197 120.988C805.64 121.429 805.106 121.684 804.619 121.73C804.109 121.777 803.088 121.916 801.533 122.148C800.861 122.264 798.982 122.635 795.85 123.239C792.741 123.842 790.397 124.167 788.843 124.167C786.5 124.167 784.11 123.215 781.651 121.336C780.422 120.223 774.018 116.835 762.442 111.151C750.865 105.467 743 101.686 738.893 99.7833C736.782 98.9017 734.393 99.0641 731.702 100.294C726.458 102.521 720.125 105.699 712.654 109.806C709.197 111.708 705.323 113.425 701.054 114.979C696.762 116.534 693.166 117.207 690.29 116.975C688.062 116.743 686.554 116.302 685.789 115.629C685 114.956 684.443 113.518 684.118 111.291C683.794 109.388 683.283 107.439 682.61 105.444C682.054 103.542 681.729 102.08 681.613 101.013C681.497 99.9457 681.868 98.9481 682.703 97.9969C683.538 97.0457 684.35 96.3497 685.116 95.9089C685.881 95.4681 687.459 94.6793 689.802 93.5657C693.375 91.6633 699.361 88.8097 707.759 84.9585C716.158 81.1073 721.215 78.8105 722.885 78.0217C724.788 77.1401 726.064 75.9337 726.737 74.4257C727.409 72.9177 727.804 70.9921 727.897 68.6721C727.897 68.3473 727.618 65.4473 727.062 59.9953H727.038ZM737.061 188.779C737.061 190.449 737.942 191.284 739.729 191.284H740.402C741.167 191.284 742.884 191.168 745.505 190.959C748.127 190.727 750.146 190.565 751.607 190.449C751.932 190.333 752.35 190.124 752.86 189.776C753.37 189.451 753.602 189.173 753.602 188.941C753.718 186.83 753.765 184.765 753.765 182.77C753.765 180.218 753.718 177.643 753.602 175.091C753.602 174.859 753.301 174.58 752.674 174.255C752.071 173.931 751.537 173.745 751.097 173.745H750.934C749.821 173.861 745.854 174.418 739.079 175.415C737.85 182.979 737.177 187.155 737.084 187.943V188.779H737.061Z" fill="#578246"/>
<path d="M704.114 187.201C703.441 187.201 702.49 187.248 701.284 187.364C700.054 187.48 699.173 187.526 698.616 187.526C696.505 187.526 694.973 186.969 694.022 185.856C693.071 184.742 692.607 182.956 692.607 180.52C692.607 179.847 693.001 176.344 693.767 169.987C701.562 167.435 709.195 166.136 716.642 166.136C717.199 166.136 718.034 166.159 719.148 166.228C720.262 166.275 721.143 166.321 721.816 166.321L733.509 165.648C733.068 164.651 732.813 163.282 732.766 161.565C732.697 159.848 732.511 158.503 732.186 157.552C731.861 156.6 731.119 156.067 730.005 155.974C728.335 155.649 721.491 155.324 709.45 155.046C697.433 154.768 690.403 154.744 688.408 154.953C685.856 155.394 683.652 155.533 681.819 155.371C679.986 155.208 678.617 154.002 677.736 151.775C676.065 148.109 675.555 143.98 676.228 139.409C676.46 138.296 677.388 137.182 679.058 136.068C680.729 134.955 684.626 134.073 690.751 133.4C696.876 132.728 701.214 132.612 703.789 133.076H724.762C728.706 133.076 731.467 133.029 733.021 132.913C753.507 132.681 765.316 132.588 768.425 132.588C771.533 132.588 778.331 132.867 788.794 133.424C799.257 133.98 804.779 134.259 805.336 134.259C805.893 134.259 806.89 134.421 808.352 134.769C810.695 135.326 812.273 136.138 813.108 137.182C813.943 138.249 814.198 139.943 813.85 142.286C813.734 143.168 813.618 143.956 813.526 144.629C813.41 145.302 813.293 145.905 813.201 146.462C813.085 147.019 812.876 147.483 812.528 147.877C812.203 148.272 811.971 148.62 811.855 148.968C811.739 149.292 811.414 149.617 810.858 149.896C810.301 150.174 809.883 150.406 809.605 150.568C809.326 150.731 808.77 150.94 807.934 151.148C807.099 151.38 806.496 151.543 806.101 151.659C805.707 151.775 804.895 151.984 803.689 152.332C802.482 152.68 801.508 152.888 800.858 153.004C799.629 153.329 792.506 153.7 779.468 154.095C766.43 154.489 759.261 154.907 757.915 155.348C757.474 155.464 757.219 155.951 757.173 156.856C757.126 157.737 757.126 158.688 757.173 159.686C757.219 160.684 757.196 161.751 757.08 162.864C757.08 163.189 757.126 163.7 757.242 164.372C757.358 165.045 757.405 165.486 757.405 165.718C768.773 165.95 778.517 166.159 786.637 166.391C788.748 166.507 790.697 166.948 792.483 167.736C793.156 167.968 793.736 168.409 794.246 169.082C794.757 169.755 794.989 170.358 794.989 170.915V173.258C794.989 176.483 794.525 179.104 793.573 181.1C792.622 183.095 790.65 184.603 787.634 185.6C787.077 185.832 785.314 185.972 782.368 186.018C779.422 186.064 776.707 186.204 774.271 186.436C771.812 186.668 770.605 187.108 770.605 187.781C770.49 188.338 770.559 189.22 770.768 190.449C771 191.679 771.093 192.56 771.093 193.117C771.093 193.233 771.139 194.184 771.255 195.948C771.371 197.734 771.418 198.894 771.418 199.451L792.298 200.796C792.182 202.235 792.112 205.158 792.042 209.566C791.996 213.974 791.625 217.384 790.952 219.844C790.836 220.284 790.441 220.795 789.792 221.352C789.119 221.908 788.562 222.187 788.121 222.187C786.567 222.303 780.094 222.349 768.749 222.349C766.197 222.349 762.462 222.303 757.567 222.187C752.672 222.071 748.937 222.024 746.385 222.024C742.255 222.024 736.061 222.048 727.755 222.117C719.449 222.164 713.255 222.21 709.125 222.21H695.6C694.045 222.21 692.839 221.769 692.004 220.864C691.169 219.983 690.751 218.8 690.751 217.361C690.751 216.92 690.797 216.41 690.913 215.853C690.913 215.528 691.006 214.368 691.169 212.42C691.331 210.471 691.586 209.056 691.911 208.151C692.793 206.156 694.37 204.81 696.597 204.137C698.593 203.464 701.469 202.745 705.205 201.956C708.94 201.168 711.144 200.727 711.793 200.611C713.348 200.286 714.485 199.938 715.227 199.613C715.946 199.288 716.712 198.662 717.478 197.78C718.243 196.899 718.638 195.716 718.638 194.277C718.638 193.488 718.753 192.653 718.962 191.772C719.194 190.89 719.496 189.846 719.89 188.686C720.285 187.526 720.54 186.714 720.633 186.273C718.521 186.83 717.408 187.108 717.292 187.108C713.951 187.224 710.842 187.271 707.942 187.271H704.091L704.114 187.201ZM727.662 69.2756C739.912 68.394 746.802 67.8836 748.38 67.7676C750.932 67.7676 753.785 68.6492 756.894 70.4356C757.567 70.7604 758.17 71.4564 758.727 72.5236C759.284 73.5908 759.562 74.5652 759.562 75.4468C759.446 82.3604 760.282 88.5316 762.068 93.9836C762.393 95.0972 765.107 96.8604 770.165 99.25C775.222 101.64 778.818 103.124 780.929 103.681C787.936 105.584 796.798 108.252 807.493 111.708C809.28 112.265 810.533 112.984 811.252 113.889C811.971 114.771 811.948 116.116 811.159 117.903C810.834 118.784 810.509 119.457 810.231 119.898C809.953 120.339 809.721 120.756 809.558 121.151C809.396 121.545 809.141 122.241 808.816 123.239C808.584 124.352 808.329 125.559 808.073 126.835C807.795 128.111 807.656 128.9 807.656 129.178C807.656 129.456 807.377 129.828 806.821 130.268C806.264 130.709 805.73 130.964 805.243 131.011C804.733 131.057 803.712 131.196 802.158 131.428C801.485 131.544 799.582 131.916 796.473 132.519C793.365 133.122 791.022 133.447 789.467 133.447C787.124 133.447 784.734 132.496 782.275 130.616C781.045 129.503 774.642 126.116 763.065 120.432C751.489 114.748 743.624 110.966 739.518 109.064C737.406 108.182 735.017 108.344 732.325 109.574C727.082 111.801 720.749 114.98 713.278 119.086C709.822 120.988 705.947 122.705 701.678 124.26C697.386 125.814 693.79 126.487 690.913 126.255C688.686 126.023 687.178 125.582 686.413 124.909C685.624 124.236 685.067 122.798 684.742 120.571C684.417 118.668 683.907 116.72 683.234 114.724C682.677 112.822 682.353 111.36 682.237 110.293C682.121 109.226 682.492 108.228 683.327 107.277C684.162 106.326 684.974 105.63 685.74 105.189C686.529 104.748 688.083 103.96 690.426 102.846C693.999 100.944 699.985 98.09 708.383 94.2388C716.781 90.3876 721.839 88.0908 723.509 87.302C725.412 86.4204 726.688 85.214 727.361 83.706C728.033 82.198 728.428 80.2724 728.521 77.9524C728.521 77.6276 728.242 74.7276 727.685 69.2756H727.662ZM737.685 198.059C737.685 199.729 738.566 200.564 740.353 200.564H741.025C741.814 200.564 743.508 200.448 746.129 200.24C748.751 200.008 750.769 199.845 752.231 199.729C752.556 199.613 752.973 199.404 753.484 199.056C753.994 198.708 754.226 198.453 754.226 198.221C754.342 196.11 754.389 194.045 754.389 192.05C754.389 189.498 754.342 186.923 754.226 184.371C754.226 184.139 753.925 183.86 753.298 183.536C752.672 183.211 752.161 183.025 751.721 183.025H751.558C750.445 183.141 746.501 183.698 739.703 184.696C738.473 192.259 737.801 196.435 737.708 197.224V198.059H737.685Z" fill="white"/>
<path d="M99.1767 46.5385C105.07 46.6777 113.143 46.4225 121.774 46.5385C140.125 46.8401 183.602 46.3993 192.232 80.4337C202.301 120.175 194.158 204.716 190.306 218.775C186.478 232.835 179.774 255.199 144.95 255.199H62.1959C56.4423 255.199 12.3623 252.972 4.6831 210.795C-2.9729 168.64 0.855101 110.501 1.7367 97.8801C2.6183 85.2825 5.0079 50.4361 47.8119 47.8609C74.3991 46.2833 88.5279 46.2833 99.1767 46.5385Z" fill="#BC3C6A"/>
<path d="M99.1767 34.9389C105.07 35.0781 113.143 34.8229 121.774 34.9389C140.125 35.2405 183.602 34.7997 192.232 68.8341C202.301 108.576 194.158 193.117 190.306 207.176C186.478 221.235 179.774 243.6 144.95 243.6H62.1959C56.4423 243.6 12.3623 241.373 4.6831 199.195C-2.9729 157.04 0.855101 98.9013 1.7367 86.2805C2.6183 73.6829 5.0079 38.8365 47.8119 36.2613C74.3991 34.6837 88.5279 34.6837 99.1767 34.9389Z" fill="#F885A7"/>
<path d="M91.1277 133.261C90.9653 131.219 90.8957 129.456 90.9421 127.971C90.9885 126.486 91.4061 125.233 92.2181 124.213C93.0301 123.192 94.3293 122.473 96.1157 122.032C100.037 121.173 102.287 120.756 102.89 120.756C104.932 120.593 106.533 120.593 107.669 120.756C108.829 120.918 109.618 121.405 110.082 122.217C110.546 123.029 110.964 124.584 111.289 126.881C111.381 127.043 111.405 127.739 111.405 128.922C111.405 130.105 111.405 131.242 111.474 132.309C111.521 133.377 111.613 133.91 111.799 133.91C114.003 133.91 119.061 134.049 126.972 134.351C134.883 134.653 139.894 134.792 142.029 134.792L152.863 133.771C153.118 133.864 153.489 134.049 153.953 134.351C154.417 134.653 154.997 135.256 155.67 136.137C156.343 137.042 156.598 137.993 156.436 139.014C156.343 139.525 155.786 142.889 154.789 149.083C153.605 149.176 152.956 149.222 152.863 149.222C152.445 149.222 137.505 149.06 108.087 148.712C106.463 148.712 102.101 148.828 94.9325 149.037C87.7869 149.246 83.6573 149.362 82.5669 149.362C80.5253 149.454 75.3285 149.408 66.9997 149.222C58.6709 149.06 53.5205 148.921 51.5485 148.828C51.0381 148.828 49.8085 148.921 47.8597 149.083C45.9109 149.245 44.6581 149.338 44.1477 149.338C43.3821 149.338 42.7557 149.269 42.2453 149.153C41.7349 149.013 41.3637 148.758 41.1549 148.317C40.9461 147.9 40.8069 147.529 40.7605 147.227C40.7141 146.925 40.6677 146.322 40.6445 145.371C40.5981 144.443 40.5749 143.701 40.5749 143.19C40.4125 141.659 40.4125 139.455 40.5749 136.555C40.6677 135.024 41.4333 134.258 42.8717 134.258C45.0061 134.165 51.2469 134.212 61.6173 134.397C71.9877 134.56 78.4141 134.606 80.8965 134.513C81.9173 134.513 85.3277 134.096 91.1045 133.237L91.1277 133.261ZM56.1653 86.3039C56.8381 86.2111 57.7661 86.0255 58.9029 85.7239C60.0629 85.4223 61.0605 85.2135 61.8957 85.0743C62.7541 84.9583 63.5893 84.8423 64.4477 84.7495C79.3421 84.2391 90.8725 83.9839 99.0389 83.9839C108.319 83.9839 118.225 84.2855 128.781 84.8655C131.751 84.8655 133.584 84.9351 134.257 85.0511C134.929 85.1903 135.881 85.3759 137.064 85.6311C138.247 85.8863 139.175 86.2807 139.801 86.8375C140.451 87.3943 140.892 88.0903 141.147 88.9487C141.24 89.2967 141.356 89.7143 141.541 90.2247C141.889 91.5935 142.098 92.6375 142.168 93.4263C142.261 94.3543 142.33 95.3055 142.423 96.2335C142.771 96.3959 142.864 99.9687 142.748 106.952C142.609 113.935 142.562 117.508 142.562 117.67C142.655 120.222 142.145 122.101 141.031 123.285C139.917 124.468 138.131 125.117 135.672 125.21C134.906 125.21 133.793 125.141 132.354 125.025C130.916 124.885 129.849 124.839 129.153 124.839C125.487 124.932 123.585 120.153 123.399 110.548C123.399 107.485 123.005 105.606 122.193 104.933C121.381 104.261 119.525 103.82 116.648 103.657C116.23 103.657 115.882 103.611 115.627 103.518C108.226 103.101 103.679 102.892 101.962 102.892C89.2949 102.637 77.2077 102.59 65.7237 102.753H62.1509C61.3853 102.753 60.6197 102.637 59.8541 102.428C59.0885 102.219 58.5781 102.08 58.3229 102.057C58.0677 102.01 57.8125 101.662 57.5573 101.036C57.3021 100.409 57.1629 99.9223 57.1629 99.6439C57.1629 99.3655 57.1165 98.5999 57.0469 97.4167C56.9541 96.2335 56.8845 95.2359 56.7917 94.4703C56.3741 89.1111 56.1653 86.3967 56.1653 86.3039ZM94.7005 152.656C99.6421 152.656 105.419 153.05 112.054 153.862C118.689 154.674 124.304 155.718 128.897 156.994C136.716 159.291 141.054 163.374 141.913 169.244C142.168 170.775 142.307 172.19 142.307 173.466C142.307 179.174 140.057 183.721 135.533 187.108C132.47 189.405 129.941 191.214 127.946 192.537C125.951 193.859 123.422 195.112 120.36 196.295C117.297 197.478 114.235 198.128 111.173 198.221C109.989 198.221 106.904 198.36 101.916 198.662C96.9509 198.963 93.6101 199.102 91.8933 199.102C89.5037 199.102 87.3925 198.94 85.5133 198.592C85.0957 198.592 84.4925 198.499 83.7269 198.337C80.1541 197.734 77.4397 197.246 75.5605 196.875C73.6813 196.504 71.4077 195.715 68.7397 194.509C66.0485 193.326 63.7749 191.794 61.9189 189.915C58.5085 186.597 56.8149 183.489 56.8149 180.589C56.8149 174.626 57.6733 170.218 59.3669 167.318C64.1229 159.314 73.9133 154.558 88.7149 153.027C90.6637 152.772 92.6821 152.633 94.7005 152.633V152.656ZM113.446 182.375C115.581 182.375 117.39 181.517 118.875 179.823C120.36 178.129 121.102 176.042 121.102 173.559C121.102 169.986 119.153 167.782 115.233 166.924C111.057 166.065 102.774 165.648 90.3389 165.648H90.2229C89.0397 165.648 87.9957 165.857 87.0909 166.274C86.2093 166.692 85.4669 167.365 84.9333 168.246C84.3765 169.128 84.0053 169.917 83.7733 170.613C83.5645 171.285 83.2861 172.26 82.9381 173.536C82.7757 174.139 82.6829 174.696 82.6829 175.206C82.6829 176.575 83.1701 177.666 84.1445 178.524C85.1189 179.382 86.3253 179.916 87.7869 180.194C89.2253 180.542 91.1973 180.821 93.6565 181.076C96.1157 181.331 98.2965 181.493 100.153 181.586C102.032 181.679 104.421 181.795 107.368 181.957C110.291 182.12 112.193 182.259 113.052 182.352H113.446V182.375Z" fill="#BC3C6A"/>
<path d="M91.1277 140.221C90.9653 138.179 90.8957 136.416 90.9421 134.931C90.9885 133.446 91.4061 132.193 92.2181 131.173C93.0301 130.152 94.3293 129.433 96.1157 128.992C100.037 128.133 102.287 127.716 102.89 127.716C104.932 127.553 106.533 127.553 107.669 127.716C108.829 127.878 109.618 128.365 110.082 129.177C110.546 129.989 110.964 131.544 111.289 133.841C111.381 134.003 111.405 134.699 111.405 135.882C111.405 137.065 111.405 138.202 111.474 139.269C111.521 140.337 111.613 140.87 111.799 140.87C114.003 140.87 119.061 141.009 126.972 141.311C134.883 141.613 139.894 141.752 142.029 141.752L152.863 140.731C153.118 140.824 153.489 141.009 153.953 141.311C154.417 141.613 154.997 142.216 155.67 143.097C156.343 144.002 156.598 144.953 156.436 145.974C156.343 146.485 155.786 149.849 154.789 156.043C153.605 156.136 152.956 156.182 152.863 156.182C152.445 156.182 137.505 156.02 108.087 155.672C106.463 155.672 102.101 155.788 94.9325 155.997C87.7869 156.205 83.6573 156.321 82.5669 156.321C80.5253 156.414 75.3285 156.368 66.9997 156.182C58.6709 156.02 53.5205 155.881 51.5485 155.788C51.0381 155.788 49.8085 155.881 47.8597 156.043C45.9109 156.205 44.6581 156.298 44.1477 156.298C43.3821 156.298 42.7557 156.229 42.2453 156.113C41.7349 155.973 41.3637 155.718 41.1549 155.277C40.9461 154.86 40.8069 154.489 40.7605 154.187C40.7141 153.885 40.6677 153.282 40.6445 152.331C40.5981 151.403 40.5749 150.661 40.5749 150.15C40.4125 148.619 40.4125 146.415 40.5749 143.515C40.6677 141.984 41.4333 141.218 42.8717 141.218C45.0061 141.125 51.2469 141.172 61.6173 141.357C71.9877 141.52 78.4141 141.566 80.8965 141.473C81.9173 141.473 85.3277 141.056 91.1045 140.197L91.1277 140.221ZM56.1653 93.2638C56.8381 93.171 57.7661 92.9854 58.9029 92.6838C60.0629 92.3822 61.0605 92.1735 61.8957 92.0343C62.7541 91.9183 63.5893 91.8023 64.4477 91.7095C79.3421 91.1991 90.8725 90.9438 99.0389 90.9438C108.319 90.9438 118.225 91.2455 128.781 91.8255C131.751 91.8255 133.584 91.8951 134.257 92.0111C134.929 92.1503 135.881 92.3359 137.064 92.5911C138.247 92.8463 139.175 93.2406 139.801 93.7974C140.451 94.3542 140.892 95.0503 141.147 95.9087C141.24 96.2567 141.356 96.6743 141.541 97.1847C141.889 98.5535 142.098 99.5974 142.168 100.386C142.261 101.314 142.33 102.265 142.423 103.193C142.771 103.356 142.864 106.929 142.748 113.912C142.609 120.895 142.562 124.468 142.562 124.63C142.655 127.182 142.145 129.061 141.031 130.245C139.917 131.428 138.131 132.077 135.672 132.17C134.906 132.17 133.793 132.101 132.354 131.985C130.916 131.845 129.849 131.799 129.153 131.799C125.487 131.892 123.585 127.113 123.399 117.508C123.399 114.445 123.005 112.566 122.193 111.893C121.381 111.221 119.525 110.78 116.648 110.617C116.23 110.617 115.882 110.571 115.627 110.478C108.226 110.061 103.679 109.852 101.962 109.852C89.2949 109.597 77.2077 109.55 65.7237 109.713H62.1509C61.3853 109.713 60.6197 109.597 59.8541 109.388C59.0885 109.179 58.5781 109.04 58.3229 109.017C58.0677 108.97 57.8125 108.622 57.5573 107.996C57.3021 107.369 57.1629 106.882 57.1629 106.604C57.1629 106.325 57.1165 105.56 57.0469 104.377C56.9541 103.193 56.8845 102.196 56.7917 101.43C56.3741 96.071 56.1653 93.3566 56.1653 93.2638ZM94.7005 159.616C99.6421 159.616 105.419 160.01 112.054 160.822C118.689 161.634 124.304 162.678 128.897 163.954C136.716 166.251 141.054 170.334 141.913 176.204C142.168 177.735 142.307 179.15 142.307 180.426C142.307 186.133 140.057 190.681 135.533 194.068C132.47 196.365 129.941 198.174 127.946 199.497C125.951 200.819 123.422 202.072 120.36 203.255C117.297 204.438 114.235 205.088 111.173 205.181C109.989 205.181 106.904 205.32 101.916 205.621C96.9509 205.923 93.6101 206.062 91.8933 206.062C89.5037 206.062 87.3925 205.9 85.5133 205.552C85.0957 205.552 84.4925 205.459 83.7269 205.297C80.1541 204.693 77.4397 204.206 75.5605 203.835C73.6813 203.464 71.4077 202.675 68.7397 201.469C66.0485 200.285 63.7749 198.754 61.9189 196.875C58.5085 193.557 56.8149 190.449 56.8149 187.549C56.8149 181.586 57.6733 177.178 59.3669 174.278C64.1229 166.274 73.9133 161.518 88.7149 159.987C90.6637 159.732 92.6821 159.593 94.7005 159.593V159.616ZM113.446 189.335C115.581 189.335 117.39 188.477 118.875 186.783C120.36 185.089 121.102 183.001 121.102 180.519C121.102 176.946 119.153 174.742 115.233 173.884C111.057 173.025 102.774 172.608 90.3389 172.608H90.2229C89.0397 172.608 87.9957 172.817 87.0909 173.234C86.2093 173.652 85.4669 174.325 84.9333 175.206C84.3765 176.088 84.0053 176.877 83.7733 177.573C83.5645 178.245 83.2861 179.22 82.9381 180.496C82.7757 181.099 82.6829 181.656 82.6829 182.166C82.6829 183.535 83.1701 184.625 84.1445 185.484C85.1189 186.342 86.3253 186.876 87.7869 187.154C89.2253 187.502 91.1973 187.781 93.6565 188.036C96.1157 188.291 98.2965 188.453 100.153 188.546C102.032 188.639 104.421 188.755 107.368 188.917C110.291 189.08 112.193 189.219 113.052 189.312H113.446V189.335Z" fill="white"/>
<path d="M291.551 47.1888C287.769 47.1888 273.803 47.7688 270.044 48.024C256.588 48.9984 217.983 54.7984 216.452 89.204C214.596 130.894 215.826 197.455 221.115 215.505C226.405 233.554 243.596 249.47 272.434 252.207C296.933 254.527 354.562 259.678 373.841 246.918C399.547 229.912 404.952 217.686 408.061 174.139C411.17 130.593 425.159 69.2984 383.167 54.6824C349.226 42.8736 297.304 47.1888 291.527 47.1888H291.551Z" fill="#418099"/>
<path d="M291.551 35.5887C287.769 35.5887 273.803 36.1687 270.044 36.4239C256.588 37.3983 217.983 43.1983 216.452 77.6039C214.596 119.294 215.826 185.855 221.115 203.905C226.405 221.954 243.596 237.87 272.434 240.607C296.933 242.927 354.562 248.078 373.841 235.318C399.547 218.312 404.952 206.086 408.061 162.539C411.17 118.993 425.159 57.6983 383.167 43.0823C349.226 31.2735 297.304 35.5887 291.527 35.5887H291.551Z" fill="#97CFDB"/>
<path d="M327.233 180.82C326.978 182.189 326.607 184.277 326.143 187.131C325.679 189.984 325.354 191.748 325.192 192.42C324.844 194.3 323.753 195.39 321.874 195.738C319.995 196.086 315.61 196.341 308.72 196.504C307.026 196.596 306.005 195.576 305.657 193.441V188.082C305.657 187.479 305.657 186.876 305.727 186.226C305.796 185.576 305.727 185.089 305.657 184.764C305.564 184.416 305.541 184.115 305.541 183.813C305.541 183.512 305.425 183.28 305.216 183.117C305.008 182.955 304.822 182.792 304.706 182.676C304.59 182.537 304.288 182.421 303.824 182.282C303.36 182.143 302.966 182.073 302.664 182.027C302.363 181.98 301.829 181.888 301.064 181.702C299.625 181.447 293.384 181.145 282.364 180.82C271.344 180.472 264.686 180.31 262.389 180.31C260.951 180.31 259.791 179.405 258.932 177.642C257.308 173.976 257.192 169.568 258.538 164.372C258.7 163.444 259.86 162.748 261.995 162.33C262.25 162.168 264.802 162.098 269.651 162.144C274.5 162.191 277.052 162.214 277.307 162.214C280.021 162.121 287.909 161.936 300.901 161.634C313.916 161.332 321.526 161.147 323.753 161.054C326.398 160.892 333.52 160.752 345.12 160.66C356.72 160.567 363.216 160.544 364.585 160.544C366.464 160.451 367.949 161.704 369.04 164.232C370.826 167.968 371.22 171.726 370.2 175.461C369.852 176.737 368.831 177.665 367.137 178.268C365.258 179.034 358.623 179.591 347.232 179.916C335.84 180.264 329.878 180.426 329.368 180.426L327.187 180.82H327.233ZM294.312 105.281L334.634 103.1V87.7884C336.42 87.3708 338.323 87.046 340.364 86.8372C342.406 86.6284 344.146 86.5356 345.584 86.582C347.023 86.6284 348.948 86.6748 351.338 86.7212C353.728 86.7676 355.468 86.7908 356.558 86.7908C357.161 86.7908 357.788 87.162 358.484 87.8812C359.156 88.6004 359.597 89.2732 359.76 89.8532C362.056 99.9684 363.379 106.998 363.727 110.919C363.889 112.288 363.889 113.656 363.727 115.072C363.564 116.464 363.286 118.25 362.892 120.361C362.497 122.496 362.265 123.841 362.196 124.444C362.033 125.21 361.082 130.569 359.388 140.522C353.426 141.032 350.294 141.288 349.946 141.288C325.54 142.216 311.063 142.68 306.562 142.68C299.834 142.68 290.136 141.96 277.469 140.499C273.989 140.081 271.182 138.689 269.117 136.346C267.029 134.003 265.985 131.172 265.985 127.855L265.846 113.703C265.753 111.661 265.521 108.692 265.15 104.771C264.756 100.85 264.524 97.9732 264.454 96.094C264.454 95.4908 264.57 94.8412 264.848 94.122C265.104 93.4028 265.452 92.9156 265.869 92.6604C271.136 90.1084 276.216 89.2268 281.065 89.9924C285.752 90.6652 288.257 91.0132 288.582 91.0132C290.716 91.0132 292.178 91.5236 292.99 92.5444C293.802 93.5652 294.243 95.05 294.336 96.9988V105.304L294.312 105.281ZM295.96 116.371C295.867 116.788 295.751 117.484 295.565 118.412C295.403 119.34 295.264 120.199 295.171 120.964C295.078 121.73 295.078 122.496 295.171 123.261C295.264 127.089 295.774 129.456 296.702 130.337C297.63 131.242 299.973 131.683 303.732 131.683C313.684 131.52 321.967 131.288 328.602 131.056C332.175 130.964 334.588 130.476 335.817 129.595C337.047 128.69 337.998 126.811 338.694 123.911C339.367 120.941 338.856 118.436 337.163 116.44C335.469 114.445 332.964 113.517 329.623 113.703C327.581 113.796 316.352 114.677 295.936 116.371H295.96Z" fill="#418099"/>
<path d="M327.234 187.781C326.979 189.15 326.608 191.238 326.144 194.091C325.68 196.945 325.355 198.708 325.192 199.381C324.844 201.26 323.754 202.35 321.875 202.698C319.996 203.046 315.611 203.302 308.721 203.464C307.027 203.557 306.006 202.536 305.658 200.402V195.042C305.658 194.439 305.658 193.836 305.728 193.186C305.797 192.537 305.728 192.05 305.658 191.725C305.565 191.377 305.542 191.075 305.542 190.774C305.542 190.472 305.426 190.24 305.217 190.078C305.008 189.915 304.823 189.753 304.707 189.637C304.591 189.498 304.289 189.382 303.825 189.242C303.361 189.103 302.967 189.034 302.665 188.987C302.364 188.941 301.83 188.848 301.064 188.662C299.626 188.407 293.385 188.106 282.365 187.781C271.345 187.433 264.687 187.27 262.39 187.27C260.952 187.27 259.792 186.366 258.933 184.602C257.309 180.937 257.193 176.529 258.539 171.332C258.701 170.404 259.861 169.708 261.996 169.29C262.251 169.128 264.803 169.058 269.652 169.105C274.5 169.151 277.052 169.174 277.308 169.174C280.022 169.082 287.91 168.896 300.902 168.594C313.917 168.293 321.527 168.107 323.754 168.014C326.399 167.852 333.521 167.713 345.121 167.62C356.721 167.527 363.217 167.504 364.586 167.504C366.465 167.411 367.95 168.664 369.041 171.193C370.827 174.928 371.221 178.686 370.201 182.422C369.853 183.698 368.832 184.626 367.138 185.229C365.259 185.994 358.624 186.551 347.232 186.876C335.841 187.224 329.879 187.386 329.368 187.386L327.188 187.781H327.234ZM294.313 112.242L334.635 110.061V94.7489C336.421 94.3313 338.324 94.0065 340.365 93.7977C342.407 93.5889 344.147 93.4961 345.585 93.5425C347.024 93.5889 348.949 93.6353 351.339 93.6817C353.728 93.7281 355.468 93.7513 356.559 93.7513C357.162 93.7513 357.788 94.1225 358.485 94.8417C359.157 95.5609 359.598 96.2337 359.761 96.8137C362.057 106.929 363.38 113.958 363.728 117.879C363.89 119.248 363.89 120.617 363.728 122.032C363.565 123.424 363.287 125.21 362.892 127.322C362.498 129.456 362.266 130.802 362.196 131.405C362.034 132.17 361.083 137.53 359.389 147.482C353.427 147.993 350.295 148.248 349.947 148.248C325.54 149.176 311.064 149.64 306.563 149.64C299.835 149.64 290.137 148.921 277.47 147.459C273.99 147.042 271.183 145.65 269.118 143.306C267.03 140.963 265.986 138.133 265.986 134.815L265.847 120.663C265.754 118.622 265.522 115.652 265.151 111.731C264.756 107.81 264.524 104.934 264.455 103.054C264.455 102.451 264.571 101.802 264.849 101.082C265.104 100.363 265.452 99.8761 265.87 99.6209C271.136 97.0689 276.217 96.1873 281.066 96.9529C285.752 97.6257 288.258 97.9737 288.583 97.9737C290.717 97.9737 292.179 98.4841 292.991 99.5049C293.803 100.526 294.244 102.01 294.336 103.959V112.265L294.313 112.242ZM295.96 123.331C295.868 123.749 295.752 124.445 295.566 125.373C295.404 126.301 295.264 127.159 295.172 127.925C295.079 128.69 295.079 129.456 295.172 130.222C295.264 134.05 295.775 136.416 296.703 137.298C297.631 138.202 299.974 138.643 303.732 138.643C313.685 138.481 321.968 138.249 328.603 138.017C332.176 137.924 334.588 137.437 335.818 136.555C337.048 135.65 337.999 133.771 338.695 130.871C339.368 127.902 338.857 125.396 337.164 123.401C335.47 121.406 332.964 120.478 329.624 120.663C327.582 120.756 316.353 121.638 295.937 123.331H295.96Z" fill="white"/>
<path d="M458.66 101.917C458.66 101.917 434.3 111.963 432.073 146.554C429.846 181.145 433.186 215.899 439.149 230.515C445.111 245.131 457.013 254.805 481.187 254.805C505.362 254.805 520.256 253.506 543.317 254.805C557.144 255.594 574.567 257.403 583.87 235.827C593.174 214.251 587.954 144.698 579.973 120.129C574.706 103.959 562.828 91.1522 521.393 92.9618C483.066 94.6322 474.158 94.6322 458.706 101.894L458.66 101.917Z" fill="#C18E1B"/>
<path d="M458.66 90.3169C458.66 90.3169 434.3 100.363 432.073 134.954C429.846 169.545 433.186 204.299 439.149 218.915C445.111 233.531 457.013 243.205 481.187 243.205C505.362 243.205 520.256 241.906 543.317 243.205C557.144 243.994 574.567 245.803 583.87 224.227C593.174 202.651 587.954 133.098 579.973 108.529C574.706 92.3585 562.828 79.5521 521.393 81.3617C483.066 83.0321 474.158 83.0321 458.706 90.2937L458.66 90.3169Z" fill="#FED054"/>
<path d="M488.239 119.015C488.819 119.085 489.724 119.201 490.977 119.41C492.207 119.595 493.32 119.781 494.295 119.943C495.269 120.106 496.174 120.315 497.032 120.57C497.287 120.709 498.262 121.034 499.909 121.544C501.556 122.055 502.693 122.426 503.273 122.611C503.853 122.797 504.781 123.122 506.057 123.586C507.333 124.05 508.4 124.491 509.328 124.908C510.233 125.326 511.138 125.767 512.066 126.231C515.453 128.11 517.634 130.639 518.631 133.84C519.629 137.019 519.513 140.406 518.283 143.979C516.659 149.315 514.711 154.233 512.437 158.78C511.857 159.894 511.022 160.915 509.955 161.889C508.887 162.863 507.797 163.536 506.683 163.931C498.819 166.668 492.879 168.176 488.843 168.501C482.602 169.011 477.567 167.503 473.739 163.931C471.466 161.796 469.865 158.339 468.96 153.607C466.756 141.914 469.587 131.984 477.428 123.795C480.351 120.732 483.947 119.155 488.239 119.015ZM530.811 188.383C520.882 189.683 515.546 190.402 514.827 190.518C510.929 191.098 503.644 191.562 492.949 191.887C482.254 192.211 474.899 192.072 470.886 191.492C470.491 191.423 470.097 191.191 469.656 190.819C469.239 190.425 469.03 190.077 469.03 189.752C468.775 185.994 468.775 182.931 469.03 180.588C469.169 178.964 469.842 177.039 471.071 174.835C475.294 173.675 478.217 173.025 479.841 172.886C481.001 172.7 486.569 172.77 496.545 173.118C506.521 173.466 511.996 173.651 512.971 173.651C514.2 173.582 516.056 173.535 518.515 173.512C520.975 173.489 522.831 173.443 524.06 173.373L531.067 172.7C531.531 161.657 531.786 155.555 531.855 154.372L533.41 118.018C533.595 117.763 533.92 117.461 534.384 117.136C534.848 116.811 535.846 116.347 537.4 115.767C538.955 115.187 540.579 114.816 542.272 114.7C543.107 114.631 544.198 114.7 545.497 114.839C546.796 115.002 547.91 115.211 548.815 115.466L550.183 115.767C550.439 116.023 550.787 116.347 551.204 116.695C551.622 117.043 552.109 117.763 552.666 118.83C553.223 119.897 553.362 120.895 553.107 121.799C552.202 124.537 551.506 133.631 551.065 149.129C550.601 164.627 550.323 172.863 550.183 173.837C550.114 174.626 550.091 176.157 550.137 178.454C550.16 180.751 550.044 182.282 549.789 182.978C549.603 183.767 549.534 186.04 549.65 189.799C549.766 193.557 549.65 195.784 549.395 196.434C548.815 198.243 548.003 199.496 546.959 200.146C545.915 200.795 544.383 201.12 542.388 201.12C539.071 201.051 536.611 200.888 534.987 200.633C532.714 200.169 531.716 198.87 531.971 196.735C532.041 196.225 531.855 194.903 531.438 192.791C531.02 190.68 530.811 189.195 530.811 188.36V188.383ZM500.999 143.955C500.999 141.102 500.443 139.06 499.352 137.807C498.239 136.578 496.452 135.951 493.993 135.951C491.139 135.951 488.611 137.065 486.383 139.315C484.179 141.566 483.043 144.141 482.973 147.064C482.973 148.688 483.971 150.405 485.989 152.191C488.007 153.978 489.91 154.767 491.743 154.581C494.155 154.326 496.29 153.212 498.169 151.263C500.048 149.315 500.999 146.879 500.999 143.955Z" fill="#C18E1B"/>
<path d="M488.238 125.976C488.818 126.045 489.723 126.161 490.976 126.37C492.206 126.556 493.319 126.741 494.294 126.904C495.268 127.066 496.173 127.275 497.031 127.53C497.286 127.669 498.261 127.994 499.908 128.505C501.555 129.015 502.692 129.386 503.272 129.572C503.852 129.757 504.78 130.082 506.056 130.546C507.332 131.01 508.399 131.451 509.327 131.869C510.232 132.286 511.137 132.727 512.065 133.191C515.452 135.07 517.633 137.599 518.63 140.801C519.628 143.979 519.512 147.366 518.282 150.939C516.658 156.275 514.71 161.193 512.436 165.741C511.856 166.854 511.021 167.875 509.954 168.849C508.886 169.824 507.796 170.497 506.682 170.891C498.818 173.629 492.878 175.137 488.842 175.461C482.601 175.972 477.566 174.464 473.738 170.891C471.465 168.757 469.864 165.3 468.959 160.567C466.755 148.874 469.586 138.945 477.427 130.755C480.35 127.693 483.946 126.115 488.238 125.976ZM530.81 195.344C520.881 196.643 515.545 197.362 514.826 197.478C510.928 198.058 503.643 198.522 492.948 198.847C482.253 199.172 474.898 199.033 470.885 198.453C470.49 198.383 470.096 198.151 469.655 197.78C469.238 197.385 469.029 197.037 469.029 196.713C468.774 192.954 468.774 189.892 469.029 187.549C469.168 185.925 469.841 183.999 471.07 181.795C475.293 180.635 478.216 179.985 479.84 179.846C481 179.661 486.568 179.73 496.544 180.078C506.52 180.426 511.995 180.612 512.97 180.612C514.199 180.542 516.055 180.496 518.514 180.473C520.974 180.449 522.83 180.403 524.059 180.333L531.066 179.661C531.53 168.617 531.785 162.516 531.854 161.333L533.409 124.978C533.594 124.723 533.919 124.421 534.383 124.097C534.847 123.772 535.845 123.308 537.399 122.728C538.954 122.148 540.578 121.777 542.271 121.661C543.106 121.591 544.197 121.661 545.496 121.8C546.795 121.962 547.909 122.171 548.814 122.426L550.182 122.728C550.438 122.983 550.786 123.308 551.203 123.656C551.621 124.004 552.108 124.723 552.665 125.79C553.222 126.857 553.361 127.855 553.106 128.76C552.201 131.497 551.505 140.592 551.064 156.089C550.6 171.587 550.322 179.823 550.182 180.797C550.113 181.586 550.09 183.117 550.136 185.414C550.159 187.711 550.043 189.242 549.788 189.938C549.602 190.727 549.533 193.001 549.649 196.759C549.765 200.517 549.649 202.745 549.394 203.394C548.814 205.204 548.002 206.457 546.958 207.106C545.914 207.756 544.382 208.081 542.387 208.081C539.07 208.011 536.61 207.849 534.986 207.593C532.713 207.129 531.715 205.83 531.97 203.696C532.04 203.185 531.854 201.863 531.437 199.752C531.019 197.641 530.81 196.156 530.81 195.321V195.344ZM500.998 150.916C500.998 148.062 500.442 146.021 499.351 144.768C498.238 143.538 496.451 142.912 493.992 142.912C491.138 142.912 488.61 144.025 486.382 146.276C484.178 148.526 483.042 151.101 482.972 154.025C482.972 155.649 483.97 157.365 485.988 159.152C488.006 160.938 489.909 161.727 491.742 161.541C494.154 161.286 496.289 160.173 498.168 158.224C500.047 156.275 500.998 153.839 500.998 150.916Z" fill="white"/>
</svg>
