<svg width="223" height="47" viewBox="0 0 223 47" fill="none" xmlns="http://www.w3.org/2000/svg">
<rect width="223" height="47" rx="12" fill="#E1EDDE"/>
<path d="M18 30.12H34V14.12H18V30.12ZM42.75 29.1562C40.6094 29.1562 39 27.8438 38.9219 26.0469H40.5938C40.6875 27.0156 41.6094 27.7188 42.75 27.7188C44.125 27.7188 45.1094 26.7188 45.1094 25.375C45.1094 24 44.0938 23 42.6719 22.9844C41.7656 22.9844 41.0781 23.2812 40.6875 23.9844H39.0625L39.7969 17.6875H46.2031V19.1562H41.2188L40.8438 22.3281H40.9531C41.4219 21.875 42.2188 21.5625 43.0781 21.5625C45.2031 21.5625 46.7812 23.1406 46.7812 25.3281C46.7812 27.5625 45.1094 29.1562 42.75 29.1562ZM52.5469 29.1562C49.9219 29.1562 48.3906 27.0469 48.3906 23.3438C48.3906 19.6719 49.9531 17.5312 52.5469 17.5312C55.1406 17.5312 56.7031 19.6719 56.7031 23.3438C56.7031 27.0469 55.1562 29.1562 52.5469 29.1562ZM52.5469 27.6719C54.0781 27.6719 54.9844 26.1719 54.9844 23.3438C54.9844 20.5312 54.0625 18.9844 52.5469 18.9844C51.0312 18.9844 50.1094 20.5312 50.1094 23.3438C50.1094 26.1719 51.0156 27.6719 52.5469 27.6719ZM70.8125 27.3906V28.6562H58V27.3906H63.625V24.4062H59.125V23.2344H61.2188V18.8281H59.0938V17.625H69.6406V18.8281H67.5V23.2344H69.5938V24.4062H65.0938V27.3906H70.8125ZM62.6875 23.2344H66.0469V18.8281H62.6875V23.2344ZM83.4375 16.3438V26.5156H81.9531V16.3438H83.4375ZM83.8594 28.8281V30.0312H74.2812V25.4844H75.7812V28.8281H83.8594ZM75.8438 17.2812C77.9531 17.2812 79.5625 18.7188 79.5625 20.75C79.5625 22.8125 77.9531 24.2344 75.8438 24.2344C73.7344 24.2344 72.1094 22.8125 72.1094 20.75C72.1094 18.7188 73.7344 17.2812 75.8438 17.2812ZM75.8438 18.5781C74.5312 18.5781 73.5625 19.4688 73.5625 20.75C73.5625 22.0625 74.5312 22.9375 75.8438 22.9375C77.125 22.9375 78.1094 22.0625 78.1094 20.75C78.1094 19.4688 77.125 18.5781 75.8438 18.5781ZM97.0156 23.7812V24.9688H87.2656V17.4844H96.875V18.6875H88.7656V20.5781H96.5781V21.75H88.7656V23.7812H97.0156ZM98.4688 27.3438V28.5625H85.6562V27.3438H98.4688ZM112.281 22.75V23.8906H99.4688V22.75H112.281ZM110.703 24.875V27.9531H102.484V29.1094H111.141V30.1562H101V26.9688H109.234V25.9375H100.984V24.875H110.703ZM110.672 16.6875V19.7188H102.578V20.7812H110.906V21.8281H101.109V18.7344H109.188V17.7344H101.078V16.6875H110.672ZM126.016 17.5312V18.6406H117.734V17.5312H121.125V16.2344H122.609V17.5312H126.016ZM121.875 19.1094C123.906 19.0938 125.281 19.9062 125.281 21.2031C125.281 22.3203 124.234 23.0703 122.609 23.2344V24.0781C123.852 24.0156 125.102 23.9219 126.266 23.7656L126.375 24.7969C123.344 25.2969 120 25.3438 117.484 25.3438L117.281 24.1875C118.43 24.1875 119.758 24.1797 121.125 24.1406V23.2344C119.5 23.0703 118.469 22.3203 118.484 21.2031C118.469 19.9062 119.828 19.0938 121.875 19.1094ZM121.875 20.125C120.672 20.1094 119.891 20.5156 119.891 21.2031C119.891 21.8438 120.672 22.25 121.875 22.25C123.062 22.25 123.859 21.8438 123.859 21.2031C123.859 20.5156 123.062 20.1094 121.875 20.125ZM128.828 16.3594V25.7344H127.344V16.3594H128.828ZM128.828 26.3594V30.3281H127.344V27.5156H119.297V26.3594H128.828ZM143.828 23.0781V24.2812H131.047V23.0781H143.828ZM142.266 25.7969V30.375H140.797V27H132.469V25.7969H142.266ZM142.391 20.4688V21.6562H132.641V16.8438H142.25V18.0469H134.125V20.4688H142.391ZM156.812 16.3438V25H155.406V21.3125H153.812V24.7969H152.422V16.5469H153.812V20.1094H155.406V16.3438H156.812ZM151.875 17.8438V19.0312H144.797V17.8438H147.625V16.3906H149.094V17.8438H151.875ZM148.344 19.6562C150.125 19.6562 151.375 20.6094 151.375 22.0781C151.375 23.5156 150.125 24.4844 148.344 24.4844C146.594 24.4844 145.344 23.5156 145.344 22.0781C145.344 20.6094 146.594 19.6562 148.344 19.6562ZM148.344 20.75C147.359 20.75 146.672 21.25 146.672 22.0781C146.672 22.875 147.359 23.3906 148.344 23.3906C149.359 23.3906 150.031 22.875 150.031 22.0781C150.031 21.25 149.344 20.75 148.344 20.75ZM149.969 25.8281C149.953 26.9766 150.539 28.1562 151.797 28.8594C153.055 28.1016 153.672 26.8359 153.672 25.8281V25.4062H155.141V25.8281C155.141 27.1719 156.109 28.5156 157.922 29.0312L157.219 30.1562C155.828 29.7031 154.883 28.7969 154.406 27.6875C153.953 28.7656 153.117 29.7734 151.828 30.2812C150.492 29.7969 149.648 28.8516 149.219 27.75C148.703 28.8125 147.758 29.6953 146.438 30.1562L145.734 29.0312C147.516 28.4688 148.5 27.0938 148.516 25.8281V25.4062H149.969V25.8281ZM161.75 24.7188V26.2031H168.328V24.7188H169.812V30.1562H160.281V24.7188H161.75ZM161.75 28.9688H168.328V27.3594H161.75V28.9688ZM171.469 22.6094V23.8438H158.703V22.6094H171.469ZM165.844 17.0781C165.844 18.6875 168.078 20.25 170.766 20.5781L170.234 21.75C167.961 21.4297 165.984 20.3594 165.094 18.875C164.18 20.3672 162.195 21.4297 159.953 21.75L159.391 20.5781C162.109 20.2344 164.328 18.7344 164.328 17.0781V16.4844H165.844V17.0781ZM184.156 16.3281V30.3281H182.672V16.3281H184.156ZM174.859 17.6875V25.4844C176.898 25.4688 179.047 25.3047 181.297 24.8438L181.5 26.0938C179.016 26.5938 176.766 26.7656 174.562 26.7656H173.391V17.6875H174.859ZM197.266 16.3281V21.75H199.516V22.9688H197.266V30.3594H195.781V16.3281H197.266ZM193.5 17.6719V18.875H188.438V25.6406C190.789 25.6328 192.555 25.5312 194.547 25.1719L194.734 26.4219C192.547 26.8125 190.688 26.8906 188.078 26.875H186.953V17.6719H193.5ZM202.766 17.6875L202.625 25.7344H201.078L200.938 17.6875H202.766ZM201.859 29.1094C201.25 29.1094 200.734 28.6094 200.75 28C200.734 27.3906 201.25 26.8906 201.859 26.8906C202.453 26.8906 202.969 27.3906 202.969 28C202.969 28.6094 202.453 29.1094 201.859 29.1094Z" fill="#578246"/>
</svg>
