<svg width="223" height="47" viewBox="0 0 223 47" fill="none" xmlns="http://www.w3.org/2000/svg">
<rect width="223" height="47" rx="12" fill="#FDE0E9"/>
<path d="M28 30.12H44V14.12H28V30.12ZM53.6094 18.5625C53.6094 20.2969 54.9688 21.9219 57.125 22.5469L56.375 23.7031C54.7422 23.2109 53.5078 22.1406 52.875 20.7656C52.2422 22.2344 50.9922 23.3984 49.3125 23.9531L48.5625 22.7812C50.7344 22.1094 52.0938 20.4062 52.1094 18.5625V18.4062H48.9688V17.2031H56.6875V18.4062H53.6094V18.5625ZM60.0312 16.3281V23.9062H58.5469V16.3281H60.0312ZM52.3281 24.5625V26.125H58.5625V24.5625H60.0312V30.1562H50.875V24.5625H52.3281ZM52.3281 28.9531H58.5625V27.2969H52.3281V28.9531ZM75.0156 22.8125V24.0156H69.3594V25.3594C71.9297 25.5 73.4531 26.3672 73.4531 27.8281C73.4531 29.4219 71.6406 30.3125 68.625 30.2969C65.5781 30.3125 63.7656 29.4219 63.7656 27.8281C63.7656 26.3672 65.2891 25.5 67.8906 25.3594V24.0156H62.25V22.8125H75.0156ZM68.625 26.4844C66.4844 26.4844 65.2656 26.9688 65.2656 27.8281C65.2656 28.6719 66.4844 29.1719 68.625 29.1562C70.7344 29.1719 71.9688 28.6719 71.9688 27.8281C71.9688 26.9688 70.7344 26.4844 68.625 26.4844ZM73.875 16.9688V18.1562H69.625C69.8359 19.5078 71.8047 20.6562 74.3594 20.9062L73.8281 22.0781C71.4062 21.7969 69.3984 20.7734 68.6406 19.2812C67.8594 20.7734 65.8594 21.7969 63.4375 22.0781L62.9219 20.9062C65.4375 20.6562 67.4141 19.5078 67.625 18.1562H63.4219V16.9688H73.875ZM87.6719 16.3281V30.3594H86.1875V16.3281H87.6719ZM80.1875 17.375C82.2656 17.375 83.7969 19.2812 83.7969 22.2812C83.7969 25.2969 82.2656 27.2031 80.1875 27.2031C78.0781 27.2031 76.5625 25.2969 76.5625 22.2812C76.5625 19.2812 78.0781 17.375 80.1875 17.375ZM80.1875 18.7031C78.8906 18.7031 78 20.0781 78 22.2812C78 24.5 78.8906 25.875 80.1875 25.875C81.4688 25.875 82.3594 24.5 82.3594 22.2812C82.3594 20.0781 81.4688 18.7031 80.1875 18.7031ZM106.578 22.8125V24.0156H100.922V25.3594C103.492 25.5 105.016 26.3672 105.016 27.8281C105.016 29.4219 103.203 30.3125 100.188 30.2969C97.1406 30.3125 95.3281 29.4219 95.3281 27.8281C95.3281 26.3672 96.8516 25.5 99.4531 25.3594V24.0156H93.8125V22.8125H106.578ZM100.188 26.4844C98.0469 26.4844 96.8281 26.9688 96.8281 27.8281C96.8281 28.6719 98.0469 29.1719 100.188 29.1562C102.297 29.1719 103.531 28.6719 103.531 27.8281C103.531 26.9688 102.297 26.4844 100.188 26.4844ZM105.438 16.9688V18.1562H101.188C101.398 19.5078 103.367 20.6562 105.922 20.9062L105.391 22.0781C102.969 21.7969 100.961 20.7734 100.203 19.2812C99.4219 20.7734 97.4219 21.7969 95 22.0781L94.4844 20.9062C97 20.6562 98.9766 19.5078 99.1875 18.1562H94.9844V16.9688H105.438ZM118.641 16.3125V20.375H120.688V21.6094H118.641V26.4531H117.156V16.3125H118.641ZM114.516 17.5156V18.7188H109.734V22.7969C112.461 22.8047 114 22.7188 115.75 22.3594L115.922 23.5625C114.031 23.9375 112.375 24.0312 109.375 24.0312H108.266V17.5156H114.516ZM119.234 28.8281V30.0312H109.766V25.4062H111.25V28.8281H119.234ZM129.812 22.25V23.4688H126.859V26.0625C128.156 26 129.461 25.9141 130.688 25.7812L130.797 26.875C127.719 27.3438 124.391 27.375 121.734 27.3906L121.547 26.1562C122.727 26.1562 124.031 26.1484 125.375 26.1094V23.4688H122.562V17.625H129.75V18.8281H124.031V22.25H129.812ZM133.047 16.3281V30.3594H131.562V16.3281H133.047ZM140.266 25.5625C140.266 26.7734 140.859 28.0469 142.141 28.8281C143.422 27.9844 144.031 26.625 144.031 25.5625V24.8125H145.484V25.5625C145.484 27.0156 146.438 28.4375 148.297 29.0312L147.531 30.1406C146.156 29.6484 145.219 28.7109 144.734 27.5469C144.297 28.6875 143.453 29.7266 142.156 30.2656C140.828 29.7578 139.984 28.7656 139.547 27.6094C139.039 28.7188 138.117 29.6484 136.797 30.1406L136.078 29.0312C137.859 28.4062 138.828 26.9219 138.844 25.5625V24.8125H140.266V25.5625ZM139.172 17.0938C140.977 17.0938 142.422 18.1641 142.75 19.75H145.484V16.3281H146.969V24.2656H145.484V20.9688H142.766C142.477 22.6016 141.016 23.7031 139.172 23.7031C137.062 23.7031 135.516 22.3438 135.516 20.4062C135.516 18.4688 137.062 17.0938 139.172 17.0938ZM139.172 18.3438C137.875 18.3438 136.922 19.1719 136.938 20.4062C136.922 21.6094 137.875 22.4688 139.172 22.4688C140.438 22.4688 141.391 21.6094 141.391 20.4062C141.391 19.1719 140.438 18.3438 139.172 18.3438ZM152.172 24.7188V26.2031H158.75V24.7188H160.234V30.1562H150.703V24.7188H152.172ZM152.172 28.9688H158.75V27.3594H152.172V28.9688ZM161.891 22.6094V23.8438H149.125V22.6094H161.891ZM156.266 17.0781C156.266 18.6875 158.5 20.25 161.188 20.5781L160.656 21.75C158.383 21.4297 156.406 20.3594 155.516 18.875C154.602 20.3672 152.617 21.4297 150.375 21.75L149.812 20.5781C152.531 20.2344 154.75 18.7344 154.75 17.0781V16.4844H156.266V17.0781ZM174.578 16.3281V30.3281H173.094V16.3281H174.578ZM165.281 17.6875V25.4844C167.32 25.4688 169.469 25.3047 171.719 24.8438L171.922 26.0938C169.438 26.5938 167.188 26.7656 164.984 26.7656H163.812V17.6875H165.281ZM187.688 16.3281V21.75H189.938V22.9688H187.688V30.3594H186.203V16.3281H187.688ZM183.922 17.6719V18.875H178.859V25.6406C181.211 25.6328 182.977 25.5312 184.969 25.1719L185.156 26.4219C182.969 26.8125 181.109 26.8906 178.5 26.875H177.375V17.6719H183.922ZM192.203 29.1094C191.594 29.1094 191.078 28.6094 191.094 28C191.078 27.3906 191.594 26.8906 192.203 26.8906C192.797 26.8906 193.312 27.3906 193.312 28C193.312 28.6094 192.797 29.1094 192.203 29.1094Z" fill="#F50E0E"/>
</svg>
